HIERARCHY
ROOT Hips
{
	OFFSET	0.00	0.00	0.00
	CHANNELS 6 Xposition Yposition Zposition Zrotation Xrotation Yrotation
	JOINT LeftUpLeg
	{
		OFFSET	 0.126116	-0.014019	-0.065224
		CHANNELS 3 Zrotation Xrotation Yrotation
		JOINT LeftLeg
		{
			OFFSET	 0.000000	 0.000000	 0.569914
			CHANNELS 3 Zrotation Xrotation Yrotation
			JOINT LeftFoot
			{
				OFFSET	 0.000000	 0.000000	 0.544423
				CHANNELS 3 Zrotation Xrotation Yrotation
				JOINT LeftToeBase
				{
					OFFSET	 0.000000	 0.000000	 0.207117
					CHANNELS 3 Zrotation Xrotation Yrotation
					End Site
					{
						OFFSET	 0.000000	 0.000000	 0.207117
					}
				}
			}
		}
	}
	JOINT RightUpLeg
	{
		OFFSET	-0.124023	-0.008373	-0.065224
		CHANNELS 3 Zrotation Xrotation Yrotation
		JOINT RightLeg
		{
			OFFSET	 0.000000	 0.000000	 0.570047
			CHANNELS 3 Zrotation Xrotation Yrotation
			JOINT RightFoot
			{
				OFFSET	 0.000000	 0.000000	 0.544354
				CHANNELS 3 Zrotation Xrotation Yrotation
				JOINT RightToeBase
				{
					OFFSET	 0.000000	 0.000000	 0.207540
					CHANNELS 3 Zrotation Xrotation Yrotation
					End Site
					{
						OFFSET	 0.000000	 0.000000	 0.207540
					}
				}
			}
		}
	}
	JOINT Spine
	{
		OFFSET	 0.000184	-0.007763	 0.117403
		CHANNELS 3 Zrotation Xrotation Yrotation
		JOINT Spine1
		{
			OFFSET	 0.000000	 0.000000	 0.137269
			CHANNELS 3 Zrotation Xrotation Yrotation
			JOINT Spine2
			{
				OFFSET	 0.000000	 0.000000	 0.156879
				CHANNELS 3 Zrotation Xrotation Yrotation
				JOINT LeftShoulder
				{
					OFFSET	 0.080501	-0.002496	 0.160144
					CHANNELS 3 Zrotation Xrotation Yrotation
					JOINT LeftArm
					{
						OFFSET	 0.000000	 0.000000	 0.164363
						CHANNELS 3 Zrotation Xrotation Yrotation
						JOINT LeftForeArm
						{
							OFFSET	 0.000000	 0.000000	 0.364576
							CHANNELS 3 Zrotation Xrotation Yrotation
							JOINT LeftHand
							{
								OFFSET	 0.000000	 0.000000	 0.360812
								CHANNELS 3 Zrotation Xrotation Yrotation
								JOINT LeftHandIndex1
								{
									OFFSET	 0.000000	 0.000000	 0.086006
									CHANNELS 3 Zrotation Xrotation Yrotation
									JOINT LeftHandIndex2
									{
										OFFSET	 0.000000	 0.000000	 0.047236
										CHANNELS 3 Zrotation Xrotation Yrotation
										JOINT LeftHandIndex3
										{
											OFFSET	-0.004284	-0.000551	 0.038166
											CHANNELS 3 Zrotation Xrotation Yrotation
											End Site
											{
												OFFSET	-0.004284	-0.000551	 0.038166
											}
										}
									}
								}
							}
						}
					}
				}
				JOINT Neck
				{
					OFFSET	 0.000000	 0.000000	 0.176489
					CHANNELS 3 Zrotation Xrotation Yrotation
					JOINT Head
					{
						OFFSET	 0.000000	-0.001747	 0.077940
						CHANNELS 3 Zrotation Xrotation Yrotation
						End Site
						{
							OFFSET	 0.000000	-0.001747	 0.077940
						}
					}
				}
				JOINT RightShoulder
				{
					OFFSET	-0.080363	 0.000306	 0.159706
					CHANNELS 3 Zrotation Xrotation Yrotation
					JOINT RightArm
					{
						OFFSET	 0.000000	 0.000000	 0.164196
						CHANNELS 3 Zrotation Xrotation Yrotation
						JOINT RightForeArm
						{
							OFFSET	 0.000000	 0.000000	 0.365611
							CHANNELS 3 Zrotation Xrotation Yrotation
							JOINT RightHand
							{
								OFFSET	 0.000000	 0.000000	 0.360648
								CHANNELS 3 Zrotation Xrotation Yrotation
								JOINT RightHandIndex1
								{
									OFFSET	 0.000000	 0.000000	 0.069977
									CHANNELS 3 Zrotation Xrotation Yrotation
									JOINT RightHandIndex2
									{
										OFFSET	 0.000000	 0.000000	 0.052305
										CHANNELS 3 Zrotation Xrotation Yrotation
										JOINT RightHandIndex3
										{
											OFFSET	 0.009002	-0.000782	 0.042196
											CHANNELS 3 Zrotation Xrotation Yrotation
											End Site
											{
												OFFSET	 0.009002	-0.000782	 0.042196
											}
										}
									}
								}
							}
						}
					}
				}
			}
		}
	}
}
MOTION
Frames:    9
Frame Time: 0.03333334
-0.027477	 0.282083	 0.993096	 3.644147	 32.618170	-8.842024	 78.965240	-74.438840	-112.596500	 7.643958	-73.904300	 7.748442	 74.951790	 69.283610	-90.309910	-2.385832	 28.452790	-0.000001	 82.323880	-86.450230	-90.865390	-21.749610	-78.584800	-16.292480	-37.117440	 74.849660	 67.033650	 2.384659	 28.388700	-0.000001	 9.877471	 14.677190	 0.385653	-1.378758	 18.583500	 0.277092	-6.742867	 1.108044	 4.915416	-99.179920	 68.203930	 156.734500	-1.076113	-12.960080	-44.641450	 5.041757	-1.462824	-6.664304	-37.063750	-14.718140	-21.873920	-2.027600	 6.559038	 9.033609	-5.188889	 0.308190	 3.541030	-5.234859	 0.342567	 0.430617	 0.428857	 17.980630	-6.195410	-5.730379	-27.025050	-3.423642	 97.478280	 64.639870	-159.241200	-11.058500	 5.656350	 62.815840	-19.085800	-5.622844	 25.378890	 21.588730	-14.562910	 17.365420	 1.803333	 3.979147	-15.098590	 4.898592	 3.004813	-9.310344	 5.224449	 0.395017	 2.014677
-0.025138	 0.279648	 1.007102	 3.389824	 31.582520	-8.315495	 71.782870	-73.222150	-120.286800	 6.479465	-72.094210	 6.564978	 74.197710	 69.358750	-88.941140	-2.385832	 28.452790	-0.000001	 36.978420	-86.290180	-135.400300	-19.753600	-76.728920	-14.233290	-37.142280	 74.821820	 66.585910	 2.384659	 28.388700	-0.000001	 4.871884	 14.319020	 0.266300	-1.177993	 18.610860	 0.048482	-6.747700	 0.357695	 4.586264	-98.908270	 68.340500	 157.364300	-0.513306	-10.982110	-45.163860	 8.040042	-2.157132	-7.845641	-37.800640	-14.835950	-22.442210	-2.027600	 6.559038	 9.033609	-5.188889	 0.308190	 3.541030	-5.234859	 0.342567	 0.430617	-0.087423	 14.756350	-4.960703	-5.977542	-23.798680	-3.746779	 97.303650	 64.453890	-159.877400	-12.098170	 5.820881	 60.922760	-20.564470	-7.727402	 29.641670	 21.902240	-14.469110	 18.488230	 1.803333	 3.979147	-15.098590	 4.898592	 3.004813	-9.310344	 5.224449	 0.395017	 2.014677
-0.022321	 0.275757	 1.024311	 3.234133	 30.327160	-7.764626	 64.156200	-71.430340	-128.399100	 5.572697	-69.785810	 5.622792	 72.721410	 69.473770	-86.824130	-2.385832	 28.452790	-0.000001	 5.925088	-83.954090	-165.342300	-17.946120	-74.393320	-12.342650	-36.908260	 74.769360	 65.744960	 2.384659	 28.388700	-0.000001	-0.971372	 13.826190	 0.148548	-0.885875	 18.539800	-0.220725	-6.816871	-0.514366	 4.174054	-98.405700	 68.863230	 158.148800	 0.185189	-8.304461	-46.001470	 11.392410	-3.054000	-9.086161	-38.688160	-15.051120	-23.350700	-2.027600	 6.559038	 9.033609	-5.188889	 0.308190	 3.541030	-5.234859	 0.342567	 0.430617	-0.578906	 10.375750	-3.915190	-6.094117	-19.449690	-3.764031	 97.043060	 64.046710	-160.924400	-13.470130	 5.664620	 58.926590	-21.871150	-10.480380	 34.644950	 21.883480	-14.062120	 19.702300	 1.803333	 3.979147	-15.098590	 4.898592	 3.004813	-9.310344	 5.224449	 0.395017	 2.014677
-0.019265	 0.270962	 1.041725	 3.037178	 28.955490	-7.069933	 57.742400	-69.285160	-135.489100	 4.873960	-67.452580	 4.888147	 71.432200	 69.666970	-84.793110	-2.385833	 28.452760	 0.000004	-7.372147	-80.674020	-177.504900	-16.717320	-71.910640	-11.013450	-36.495450	 74.849240	 64.691920	 2.384659	 28.388700	-0.000001	-6.927156	 13.264870	 0.000617	-0.691338	 18.660040	-0.434602	-6.885083	-1.721040	 3.674717	-97.530590	 70.108340	 159.029200	 1.103814	-4.952791	-46.916290	 14.659830	-4.030406	-10.190790	-39.650270	-15.215320	-24.809560	-2.027600	 6.559038	 9.033609	-5.188889	 0.308190	 3.541030	-5.234859	 0.342567	 0.430617	-0.939344	 4.794059	-2.741024	-6.266466	-14.002720	-3.913511	 96.705180	 64.281650	-161.606300	-14.980640	 6.744780	 57.043190	-23.303840	-13.707940	 39.300400	 21.718140	-13.615610	 20.482990	 1.803333	 3.979147	-15.098590	 4.898592	 3.004813	-9.310344	 5.224449	 0.395017	 2.014677
-0.016370	 0.265604	 1.059444	 2.801282	 27.461690	-6.256986	 52.225680	-66.884470	-141.820100	 4.561514	-65.036990	 4.515028	 69.929500	 69.951610	-82.610210	-2.385833	 28.452760	 0.000004	-14.443900	-76.919680	 176.572500	-15.959760	-69.233020	-10.125970	-36.159790	 74.959210	 63.753900	 2.384659	 28.388700	-0.000001	-12.775820	 12.740010	-0.150646	-0.434913	 18.848120	-0.726064	-6.942574	-3.056952	 3.221350	-96.064540	 72.476620	 159.858700	 2.075999	-0.625745	-48.463190	 17.837030	-5.063966	-11.170640	-40.786990	-15.505620	-26.306240	-2.027600	 6.559038	 9.033609	-5.188889	 0.308190	 3.541030	-5.234859	 0.342567	 0.430617	-1.210903	-1.292482	-2.251848	-6.256149	-8.123475	-3.468387	 95.964140	 65.597350	-162.458300	-16.526370	 9.025539	 56.241470	-24.500370	-17.155420	 43.545580	 21.863960	-13.801700	 21.364820	 1.803333	 3.979147	-15.098590	 4.898592	 3.004813	-9.310344	 5.224449	 0.395017	 2.014677
-0.014433	 0.260254	 1.074678	 2.599567	 26.080800	-5.566800	 48.027650	-64.622830	-146.760300	 4.493199	-62.898410	 4.372872	 68.125230	 70.302750	-80.305300	-2.385833	 28.452750	 0.000004	-18.179510	-73.462540	 173.838700	-14.881980	-66.884090	-8.967287	-36.408300	 75.050550	 63.217070	 2.384659	 28.388700	-0.000001	-17.430360	 12.297400	-0.214054	-0.161712	 18.963720	-0.992382	-6.993349	-4.245420	 2.866102	-94.536600	 74.823520	 160.500300	 3.099503	 3.240503	-50.140400	 20.402610	-5.944716	-11.887490	-41.587590	-15.774550	-27.596950	-2.027600	 6.559038	 9.033609	-5.188889	 0.308190	 3.541030	-5.234859	 0.342567	 0.430617	-1.423127	-6.919162	-2.271611	-6.223919	-2.761175	-2.781874	 95.195040	 67.099780	-163.245000	-17.913380	 11.239770	 55.980340	-25.149120	-20.116220	 46.994300	 22.057930	-14.208680	 22.025710	 1.803333	 3.979147	-15.098590	 4.898592	 3.004813	-9.310344	 5.224449	 0.395017	 2.014677
-0.012793	 0.252814	 1.091783	 2.490642	 24.510810	-4.847215	 43.821010	-61.933430	-151.755800	 4.484448	-60.395040	 4.315669	 65.415660	 70.771100	-77.074170	-2.385833	 28.452750	 0.000004	-21.097310	-69.453090	 172.112100	-13.018930	-64.205570	-7.096669	-36.984280	 75.237540	 62.441380	 2.384659	 28.388700	-0.000001	-22.184140	 11.706570	-0.260356	 0.185064	 19.132300	-1.337396	-7.051212	-5.714611	 2.456213	-92.998650	 76.949060	 161.315100	 4.488943	 7.002151	-52.138240	 23.140360	-6.910196	-12.573280	-41.996030	-15.984730	-29.051250	-2.027600	 6.559038	 9.033609	-5.188889	 0.308190	 3.541030	-5.234859	 0.342567	 0.430617	-1.663012	-13.071910	-2.429352	-6.255651	 3.054131	-1.992183	 94.336460	 68.774130	-164.151900	-19.506640	 13.645900	 55.584980	-25.357690	-23.415950	 50.933900	 22.212120	-14.699110	 22.559830	 1.803333	 3.979147	-15.098590	 4.898592	 3.004813	-9.310344	 5.224449	 0.395017	 2.014677
-0.010752	 0.243544	 1.108990	 2.817987	 23.170650	-4.268096	 40.917510	-59.029960	-155.291900	 4.602705	-57.740410	 4.187996	 63.102600	 71.106980	-74.051500	-2.385833	 28.452750	 0.000004	-23.220580	-65.516680	 171.406200	-11.127390	-61.437330	-5.257539	-36.101350	 75.483120	 60.128010	 2.384659	 28.388700	-0.000001	-26.067810	 10.681000	-0.537051	 0.404664	 18.868880	-1.547833	-7.088952	-7.142300	 1.757447	-93.823410	 75.428180	 163.063800	 5.804618	 7.998026	-52.506680	 25.611350	-7.780118	-13.115190	-41.181580	-15.709200	-30.355530	-2.027600	 6.559038	 9.033609	-5.188889	 0.308190	 3.541030	-5.234859	 0.342567	 0.430617	-1.667057	-14.485820	-1.158696	-6.288093	 4.551619	-2.552940	 93.850970	 69.487950	-164.995000	-21.044020	 15.932550	 54.116800	-25.200620	-26.452590	 54.562790	 22.032450	-14.833820	 22.802250	 1.803333	 3.979147	-15.098590	 4.898592	 3.004813	-9.310344	 5.224449	 0.395017	 2.014677
-0.009870	 0.233498	 1.125096	 3.035800	 21.891200	-3.678888	 38.064960	-56.253930	-158.795900	 4.477048	-55.252460	 4.024098	 59.971120	 71.570610	-70.286680	-2.385833	 28.452750	 0.000004	-25.031970	-61.590600	 170.988400	-9.477875	-58.731690	-3.704318	-35.350610	 75.691910	 57.803760	 2.384659	 28.388700	-0.000001	-29.149810	 9.570452	-0.561565	 0.719669	 18.402030	-1.646830	-7.186992	-8.483191	 1.156046	-94.287030	 74.186580	 164.455200	 7.390205	 8.737674	-52.609960	 27.789130	-8.519748	-13.525110	-40.033860	-15.517480	-30.608020	-2.027600	 6.559038	 9.033609	-5.188889	 0.308190	 3.541030	-5.234859	 0.342567	 0.430617	-1.765192	-15.100940	-0.985173	-6.222703	 5.343831	-2.375577	 93.971970	 67.964380	-166.262400	-22.402410	 16.459270	 52.216280	-24.622170	-29.047800	 57.949780	 21.374990	-14.442060	 22.835580	 1.803333	 3.979147	-15.098590	 4.898592	 3.004813	-9.310344	 5.224449	 0.395017	 2.014677
